HIERARCHY
ROOT Hips
{
    OFFSET 0.000000 0.000000 0.000000
    CHANNELS 6 Xposition Yposition Zposition Zrotation Xrotation Yrotation
    JOINT Spine
    {
        OFFSET -0.000000 7.246840 0.000000
        CHANNELS 3 Zrotation Xrotation Yrotation
        JOINT Spine1
        {
            OFFSET -0.000000 20.289354 0.000000
            CHANNELS 3 Zrotation Xrotation Yrotation
            JOINT Neck
            {
                OFFSET -0.000000 20.206032 1.836912
                CHANNELS 3 Zrotation Xrotation Yrotation
                JOINT Head
                {
                    OFFSET -0.000000 12.372654 -1.767522
                    CHANNELS 3 Zrotation Xrotation Yrotation
                    End Site
                    {
                        OFFSET -0.000000 22.094025 0.000000
                    }
                }
            }
            JOINT LeftShoulder
            {
                OFFSET 3.465871 17.201674 -0.568930
                CHANNELS 3 Zrotation Xrotation Yrotation
                JOINT LeftArm
                {
                    OFFSET 14.070313 0.000000 0.000000
                    CHANNELS 3 Zrotation Xrotation Yrotation
                    JOINT LeftForeArm
                    {
                        OFFSET 26.549477 0.000000 0.000000
                        CHANNELS 3 Zrotation Xrotation Yrotation
                        JOINT LeftHand
                        {
                            OFFSET 18.880413 0.000000 0.000000
                            CHANNELS 3 Zrotation Xrotation Yrotation
                            End Site
                            {
                                OFFSET 13.256415 0.000000 0.000000
                            }
                        }
                    }
                }
            }
            JOINT RightShoulder
            {
                OFFSET -3.526370 17.201674 -0.568930
                CHANNELS 3 Zrotation Xrotation Yrotation
                JOINT RightArm
                {
                    OFFSET -14.070313 0.000000 0.000000
                    CHANNELS 3 Zrotation Xrotation Yrotation
                    JOINT RightForeArm
                    {
                        OFFSET -26.549477 0.000000 0.000000
                        CHANNELS 3 Zrotation Xrotation Yrotation
                        JOINT RightHand
                        {
                            OFFSET -18.880413 0.000000 0.000000
                            CHANNELS 3 Zrotation Xrotation Yrotation
                            End Site
                            {
                                OFFSET -13.256415 0.000000 0.000000
                            }
                        }
                    }
                }
            }
        }
    }
    JOINT LeftUpLeg
    {
        OFFSET 8.837609 0.000000 0.000000
        CHANNELS 3 Zrotation Xrotation Yrotation
        JOINT LeftLeg
        {
            OFFSET -0.000000 -41.345005 0.000000
            CHANNELS 3 Zrotation Xrotation Yrotation
            JOINT LeftFoot
            {
                OFFSET -0.000000 -35.500874 0.000000
                CHANNELS 3 Zrotation Xrotation Yrotation
                JOINT LeftToeBase
                {
                    OFFSET -0.000000 -5.744446 13.256415
                    CHANNELS 3 Zrotation Xrotation Yrotation
                    End Site
                    {
                        OFFSET -0.000000 0.000000 3.535044
                    }
                }
            }
        }
    }
    JOINT RightUpLeg
    {
        OFFSET -8.837609 0.000000 0.000000
        CHANNELS 3 Zrotation Xrotation Yrotation
        JOINT RightLeg
        {
            OFFSET -0.000000 -41.345005 0.000000
            CHANNELS 3 Zrotation Xrotation Yrotation
            JOINT RightFoot
            {
                OFFSET -0.000000 -35.500874 0.000000
                CHANNELS 3 Zrotation Xrotation Yrotation
                JOINT RightToeBase
                {
                    OFFSET -0.000000 -5.744446 13.256415
                    CHANNELS 3 Zrotation Xrotation Yrotation
                    End Site
                    {
                        OFFSET -0.000000 0.000000 3.535044
                    }
                }
            }
        }
    }
}
MOTION
Frames:    4
Frame Time:    0.010000
3.757784    71.446609    -50.220535    5.561680    -6.854285    -1.272254    -6.119642    6.820914    1.579925    -16.006598    8.354744    2.391677    16.184082    33.895351    -0.942028    10.452833    -47.545933    7.631650    8.184097    -0.879789    4.014092    -71.875198    10.550397    -10.594819    -15.275474    -37.150761    -59.444080    -42.109653    -26.733677    -50.618401    -13.575830    0.827248    12.422411    -166.417175    3.303369    176.895874    102.060822    -14.817879    -62.906593    -53.741211    44.239826    76.754066    -4.976063    -13.357213    0.567734    1.881768    61.908306    -9.208845    9.805016    -26.017023    8.491016    -2.105782    -10.347940    3.157090    -14.402214    -28.782560    -9.403044    -18.296534    64.689621    19.872053    13.839447    -17.046005    -4.302933    -1.573762    -9.525210    3.163272    
3.837968    71.474327    -50.080235    5.408664    -7.470569    -1.837116    -6.025184    6.827130    1.483866    -16.143301    9.365793    2.455344    15.249875    32.642254    -0.508542    10.440433    -45.451736    7.508522    8.412653    -1.025460    5.734694    -73.337456    13.761383    -10.901079    -15.512927    -37.517059    -59.074123    -40.246822    -28.521967    -49.644444    -12.272520    -0.764285    13.238523    -163.766907    -1.559610    175.098953    101.876678    -15.564906    -62.917793    -48.727856    49.056824    73.455727    -5.018137    -12.644520    1.089157    2.409089    61.983955    -9.267612    9.778466    -25.888502    8.569798    -2.139121    -10.493320    3.210507    -14.152574    -28.553581    -8.510900    -18.131811    65.157372    20.201763    14.098999    -16.565351    -4.366655    -1.648276    -10.176025    3.342200    
3.936707    71.556160    -49.964188    5.252020    -7.672514    -2.413266    -6.142554    6.641924    1.470336    -15.518192    9.220957    2.372659    13.887097    33.386307    -0.374493    10.804545    -44.286999    7.613849    7.632733    -0.287160    6.369365    -73.895256    17.110996    -10.813570    -14.623775    -37.762482    -58.778545    -37.410179    -30.448000    -47.358784    -11.084953    -1.164172    14.777274    -161.201904    -5.149268    174.017319    100.105934    -16.255470    -64.598679    -43.822697    53.130054    70.260284    -5.080152    -12.249009    1.588784    2.972126    61.806942    -9.416143    9.637852    -25.730885    8.816760    -2.124549    -10.554290    3.190085    -14.064190    -28.646263    -8.000206    -17.965204    65.365685    20.549805    14.614877    -16.076904    -4.133187    -1.667831    -10.271604    3.386239    
4.030781    71.689674    -49.835522    5.072433    -7.783660    -2.906823    -6.066252    6.293415    1.418300    -15.472970    9.340340    2.356258    13.428947    33.551414    -0.226519    10.649592    -42.835056    7.493724    7.625045    0.235999    7.274901    -75.265076    19.294159    -10.844934    -15.505813    -37.787491    -58.458660    -35.456673    -31.332451    -48.437305    -9.360627    -1.522337    15.792780    -159.125061    -9.373554    172.597183    98.591515    -15.999217    -65.574585    -39.820404    56.103287    64.919182    -5.115477    -11.826951    1.929162    3.176033    61.405376    -9.148426    9.519897    -25.782471    8.805532    -2.186700    -10.394966    3.279507    -14.077957    -28.643028    -7.575549    -17.299669    65.346962    20.195925    15.208003    -15.467197    -3.562027    -1.682888    -10.446249    3.424961    
